<svg width="30" height="18" viewBox="0 0 30 18" fill="none" xmlns="http://www.w3.org/2000/svg">
<path d="M6.46798 11.1809L0.401508 8.22011C0.160488 8.1371 0 7.91982 0 7.67652C0 7.43322 0.160488 7.21594 0.401508 7.13293L14.7867 0.0346912C14.9247 -0.0115637 15.0753 -0.0115637 15.2133 0.0346912L29.5985 7.13293C29.8395 7.21594 30 7.43322 30 7.67652C30 7.91982 29.8395 8.1371 29.5985 8.22011L28.3648 9.54437L26.6767 10.1169L23.532 11.1809H6.46798Z" fill="#384555"/>
<path d="M6.66675 15.7847V9.06679C6.66675 8.05299 10.3989 7.23462 15.0001 7.23462C19.6013 7.23462 23.3334 8.05299 23.3334 9.06679V15.7847H6.66675Z" fill="#464F5E"/>
<path d="M26.6667 10.5233C26.2985 10.5233 26 10.2481 26 9.90865V5.87639C26 5.53692 26.2985 5.26172 26.6667 5.26172C27.0349 5.26172 27.3333 5.53692 27.3333 5.87639V9.90865C27.3333 10.2481 27.0349 10.5233 26.6667 10.5233Z" fill="#FFD06C"/>
<path d="M25.3333 10.9616V12.6059C25.3333 12.9086 25.6317 13.154 25.9999 13.154H27.3333C27.7014 13.154 27.9999 12.9086 27.9999 12.6059V10.9616C27.9999 10.3563 27.403 9.86548 26.6666 9.86548C25.9302 9.86548 25.3333 10.3563 25.3333 10.9616Z" fill="#F1D24B"/>
<path d="M15.0001 17.758C19.6025 17.758 23.3334 16.8746 23.3334 15.7849C23.3334 14.6952 19.6025 13.8118 15.0001 13.8118C10.3977 13.8118 6.66675 14.6952 6.66675 15.7849C6.66675 16.8746 10.3977 17.758 15.0001 17.758Z" fill="#384555"/>
</svg>
