<svg width="35" height="22" viewBox="0 0 35 22" fill="none" xmlns="http://www.w3.org/2000/svg">
<g clip-path="url(#clip0)">
<path d="M10.8319 10.5863C12.2863 10.5863 13.5456 10.0646 14.5746 9.03549C15.6036 8.00651 16.1252 6.74749 16.1252 5.29296C16.1252 3.83894 15.6036 2.57975 14.5744 1.55043C13.5453 0.521617 12.2861 0 10.8319 0C9.37736 0 8.11833 0.521617 7.08935 1.5506C6.06036 2.57958 5.53857 3.83877 5.53857 5.29296C5.53857 6.74749 6.06036 8.00668 7.08952 9.03566C8.11867 10.0645 9.37787 10.5863 10.8319 10.5863Z" fill="#7883CC"/>
<path d="M20.0936 16.899C20.0639 16.4708 20.0039 16.0036 19.9155 15.5103C19.8263 15.0134 19.7115 14.5436 19.574 14.1142C19.432 13.6704 19.2388 13.2321 19.0001 12.8121C18.7523 12.3761 18.4612 11.9965 18.1346 11.6842C17.793 11.3574 17.3749 11.0946 16.8913 10.903C16.4094 10.7123 15.8754 10.6158 15.3041 10.6158C15.0798 10.6158 14.8628 10.7078 14.4438 10.9806C14.186 11.1488 13.8843 11.3433 13.5476 11.5584C13.2597 11.7418 12.8697 11.9137 12.388 12.0693C11.9181 12.2214 11.4409 12.2985 10.9699 12.2985C10.4989 12.2985 10.0219 12.2214 9.5514 12.0693C9.07019 11.9139 8.68019 11.742 8.39264 11.5586C8.05915 11.3455 7.75734 11.151 7.49561 10.9804C7.07711 10.7077 6.85998 10.6156 6.63563 10.6156C6.06422 10.6156 5.53036 10.7123 5.04864 10.9032C4.56542 11.0945 4.14709 11.3572 3.80521 11.6843C3.47876 11.9969 3.18752 12.3763 2.94004 12.8121C2.70144 13.2321 2.50829 13.6702 2.3661 14.1143C2.22878 14.5437 2.11393 15.0134 2.02473 15.5103C1.93637 16.003 1.87634 16.4703 1.84666 16.8995C1.81749 17.32 1.80273 17.7564 1.80273 18.1972C1.80273 19.3444 2.16742 20.2731 2.88655 20.9581C3.5968 21.6339 4.53658 21.9768 5.67942 21.9768H16.2614C17.4042 21.9768 18.3436 21.6341 19.0541 20.9581C19.7734 20.2736 20.138 19.3448 20.138 18.1971C20.1379 17.7543 20.123 17.3175 20.0936 16.899Z" fill="#3D4FC3"/>
</g>
<g clip-path="url(#clip1)">
<path d="M23.8553 10.5863C25.3097 10.5863 26.5691 10.0646 27.598 9.03549C28.627 8.00651 29.1487 6.74749 29.1487 5.29296C29.1487 3.83894 28.627 2.57975 27.5979 1.55043C26.5687 0.521617 25.3095 0 23.8553 0C22.4008 0 21.1418 0.521617 20.1128 1.5506C19.0838 2.57958 18.562 3.83877 18.562 5.29296C18.562 6.74749 19.0838 8.00668 20.113 9.03566C21.1421 10.0645 22.4013 10.5863 23.8553 10.5863Z" fill="#57A0E3"/>
<path d="M33.117 16.899C33.0874 16.4708 33.0273 16.0036 32.939 15.5103C32.8498 15.0134 32.7349 14.5436 32.5974 14.1142C32.4554 13.6704 32.2623 13.2321 32.0235 12.8121C31.7757 12.3761 31.4846 11.9965 31.158 11.6842C30.8165 11.3574 30.3983 11.0946 29.9147 10.903C29.4328 10.7123 28.8988 10.6158 28.3276 10.6158C28.1032 10.6158 27.8863 10.7078 27.4673 10.9806C27.2094 11.1488 26.9078 11.3433 26.5711 11.5584C26.2832 11.7418 25.8932 11.9137 25.4115 12.0693C24.9415 12.2214 24.4643 12.2985 23.9933 12.2985C23.5223 12.2985 23.0453 12.2214 22.5748 12.0693C22.0936 11.9139 21.7036 11.742 21.4161 11.5586C21.0826 11.3455 20.7808 11.151 20.519 10.9804C20.1005 10.7077 19.8834 10.6156 19.6591 10.6156C19.0877 10.6156 18.5538 10.7123 18.0721 10.9032C17.5889 11.0945 17.1705 11.3572 16.8286 11.6843C16.5022 11.9969 16.211 12.3763 15.9635 12.8121C15.7249 13.2321 15.5317 13.6702 15.3895 14.1143C15.2522 14.5437 15.1374 15.0134 15.0482 15.5103C14.9598 16.003 14.8998 16.4703 14.8701 16.8995C14.8409 17.32 14.8262 17.7564 14.8262 18.1972C14.8262 19.3444 15.1909 20.2731 15.91 20.9581C16.6202 21.6339 17.56 21.9768 18.7029 21.9768H29.2848C30.4276 21.9768 31.3671 21.6341 32.0775 20.9581C32.7968 20.2736 33.1615 19.3448 33.1615 18.1971C33.1613 17.7543 33.1464 17.3175 33.117 16.899Z" fill="#136DC1"/>
</g>
<defs>
<clipPath id="clip0">
<rect width="21.9768" height="21.9768" fill="white"/>
</clipPath>
<clipPath id="clip1">
<rect width="21.9768" height="21.9768" fill="white" transform="translate(13.0234)"/>
</clipPath>
</defs>
</svg>
