<svg width="30" height="23" viewBox="0 0 30 23" fill="none" xmlns="http://www.w3.org/2000/svg">
<rect width="30" height="22.9412" rx="2" fill="#FFD06C"/>
<path d="M8.344 8.77884V14.0588H6.816L5.176 11.2028L4.776 10.4188H4.768L4.8 11.3948V14.0588H3.584V8.77884H5.112L6.752 11.6348L7.152 12.4188H7.16L7.128 11.4428V8.77884H8.344ZM9.51369 14.0588V8.77884H13.6257V9.84284H10.8897V10.9148H13.0657V11.9148H10.8897V12.9948H13.7297V14.0588H9.51369ZM15.5766 14.0588L14.0566 8.77884H15.5206L16.4166 12.9468L17.3606 8.77884H18.6086L19.5766 12.9388L20.4566 8.77884H21.8726L20.3446 14.0588H18.8486L18.2246 11.4988L17.9846 10.2108H17.9686L17.7366 11.4988L17.1206 14.0588H15.5766ZM24.5777 8.69884C25.0684 8.69884 25.5004 8.77617 25.8737 8.93084C26.2524 9.08017 26.5804 9.3015 26.8577 9.59484L26.1937 10.4828C25.9644 10.2428 25.7164 10.0642 25.4497 9.94684C25.1884 9.82417 24.8897 9.76284 24.5537 9.76284C24.3564 9.76284 24.1964 9.78417 24.0737 9.82684C23.951 9.8695 23.863 9.92817 23.8097 10.0028C23.7564 10.0775 23.7297 10.1628 23.7297 10.2588C23.7297 10.3708 23.7804 10.4668 23.8817 10.5468C23.9884 10.6215 24.159 10.6855 24.3937 10.7388L25.2817 10.9388C25.8097 11.0615 26.1964 11.2402 26.4417 11.4748C26.687 11.7095 26.8097 12.0215 26.8097 12.4108C26.8097 12.7842 26.7137 13.1015 26.5217 13.3628C26.3297 13.6188 26.0657 13.8135 25.7297 13.9468C25.3937 14.0748 25.0097 14.1388 24.5777 14.1388C24.2257 14.1388 23.8897 14.1015 23.5697 14.0268C23.2497 13.9468 22.9617 13.8348 22.7057 13.6908C22.4497 13.5468 22.2337 13.3815 22.0577 13.1948L22.7217 12.2748C22.855 12.4295 23.0177 12.5682 23.2097 12.6908C23.407 12.8082 23.6204 12.9015 23.8497 12.9708C24.0844 13.0402 24.3217 13.0748 24.5617 13.0748C24.7484 13.0748 24.903 13.0562 25.0257 13.0188C25.1537 12.9815 25.247 12.9255 25.3057 12.8508C25.3644 12.7762 25.3937 12.6882 25.3937 12.5868C25.3937 12.4748 25.3537 12.3815 25.2737 12.3068C25.1937 12.2268 25.0417 12.1602 24.8177 12.1068L23.8417 11.8908C23.543 11.8215 23.2764 11.7308 23.0417 11.6188C22.8124 11.5015 22.631 11.3468 22.4977 11.1548C22.3644 10.9575 22.2977 10.7122 22.2977 10.4188C22.2977 10.0882 22.3884 9.79484 22.5697 9.53884C22.751 9.2775 23.0124 9.07217 23.3537 8.92284C23.695 8.7735 24.103 8.69884 24.5777 8.69884Z" fill="#384555"/>
</svg>
