<svg width="30" height="30" viewBox="0 0 30 30" fill="none" xmlns="http://www.w3.org/2000/svg">
<path d="M15.0008 29.9997C23.285 29.9997 30.0007 23.2841 30.0007 14.9999C30.0007 6.71567 23.285 0 15.0008 0C6.71665 0 0.000976562 6.71567 0.000976562 14.9999C0.000976562 23.2841 6.71665 29.9997 15.0008 29.9997Z" fill="#55ACEE"/>
<path d="M24.188 10.78C23.5452 11.065 22.8537 11.2578 22.1286 11.3439C22.869 10.9003 23.4372 10.1984 23.7054 9.36067C23.0126 9.77165 22.2449 10.0698 21.4286 10.2305C20.7745 9.53394 19.8427 9.09863 18.8108 9.09863C16.8311 9.09863 15.2255 10.7043 15.2255 12.684C15.2255 12.965 15.2573 13.2386 15.3188 13.5012C12.339 13.3517 9.69697 11.9244 7.92847 9.75453C7.61991 10.284 7.4429 10.9003 7.4429 11.5573C7.4429 12.8009 8.07633 13.8988 9.03786 14.5416C8.45041 14.5231 7.89719 14.3619 7.41402 14.0926C7.41375 14.1079 7.41375 14.1231 7.41375 14.1381C7.41375 15.8753 8.65015 17.3243 10.29 17.6534C9.98949 17.7358 9.6721 17.7793 9.34562 17.7793C9.11406 17.7793 8.88973 17.7572 8.671 17.7154C9.12717 19.1395 10.451 20.1762 12.0203 20.2053C10.793 21.1671 9.24722 21.7401 7.56696 21.7401C7.27819 21.7401 6.99208 21.7233 6.71213 21.6899C8.298 22.7076 10.1831 23.3009 12.2077 23.3009C18.8026 23.3009 22.4091 17.8376 22.4091 13.0993C22.4091 12.9439 22.4056 12.7891 22.3986 12.6356C23.0997 12.1303 23.7075 11.499 24.188 10.78Z" fill="white"/>
</svg>
