<svg width="27" height="27" viewBox="0 0 27 27" fill="none" xmlns="http://www.w3.org/2000/svg">
<g clip-path="url(#clip0)">
<path d="M24.8581 4.3508C23.4604 2.83489 21.5426 2 19.4575 2C17.899 2 16.4717 2.49274 15.2151 3.46441C14.5811 3.95488 14.0065 4.55494 13.5 5.25532C12.9937 4.55515 12.4189 3.95488 11.7847 3.46441C10.5283 2.49274 9.10101 2 7.54246 2C5.45739 2 3.53938 2.83489 2.14172 4.3508C0.760735 5.84899 0 7.89574 0 10.1143C0 12.3977 0.85096 14.488 2.67792 16.6925C4.31227 18.6645 6.66122 20.6663 9.38136 22.9844C10.3102 23.776 11.363 24.6733 12.4562 25.6291C12.745 25.8821 13.1156 26.0213 13.5 26.0213C13.8842 26.0213 14.255 25.8821 14.5434 25.6295C15.6366 24.6735 16.69 23.7758 17.6193 22.9837C20.339 20.6661 22.6879 18.6645 24.3223 16.6923C26.1492 14.488 27 12.3977 27 10.1141C27 7.89574 26.2393 5.84899 24.8581 4.3508Z" fill="#FF7575"/>
<mask id="mask0" style="mask-type:alpha" maskUnits="userSpaceOnUse" x="0" y="3" width="27" height="25">
<path d="M24.8581 5.3508C23.4604 3.83489 21.5426 3 19.4575 3C17.899 3 16.4717 3.49274 15.2151 4.46441C14.5811 4.95488 14.0065 5.55494 13.5 6.25532C12.9937 5.55515 12.4189 4.95488 11.7847 4.46441C10.5283 3.49274 9.10101 3 7.54246 3C5.45739 3 3.53938 3.83489 2.14172 5.3508C0.760735 6.84899 0 8.89574 0 11.1143C0 13.3977 0.85096 15.488 2.67792 17.6925C4.31227 19.6645 6.66122 21.6663 9.38136 23.9844C10.3102 24.776 11.363 25.6733 12.4562 26.6291C12.745 26.8821 13.1156 27.0213 13.5 27.0213C13.8842 27.0213 14.255 26.8821 14.5434 26.6295C15.6366 25.6735 16.69 24.7758 17.6193 23.9837C20.339 21.6661 22.6879 19.6645 24.3223 17.6923C26.1492 15.488 27 13.3977 27 11.1141C27 8.89574 26.2393 6.84899 24.8581 5.3508Z" fill="#FF7575"/>
</mask>
<g mask="url(#mask0)">
<path d="M24 9C23.1667 4 19 3.5 16 4L22.5 0L33 -4C34.8333 -2 38.5 2.1 38.5 2.5C38.5 2.9 34.8333 17.6667 33 25L11.5 29.5C12.1667 29 14.3103 26.3597 19 21C22.5 17 24.7398 13.4388 24 9Z" fill="#EE5454"/>
</g>
</g>
<defs>
<clipPath id="clip0">
<rect width="27" height="27" fill="white"/>
</clipPath>
</defs>
</svg>
