<svg xmlns="http://www.w3.org/2000/svg" xmlns:xlink="http://www.w3.org/1999/xlink" aria-hidden="true" role="img" class="iconify iconify--majesticons" width="32" height="32" preserveAspectRatio="xMidYMid meet" viewBox="0 0 24 24"><g fill="none"><path fill-rule="evenodd" clip-rule="evenodd" d="M6 3a3 3 0 0 0-3 3v12a3 3 0 0 0 3 3h4a3 3 0 0 0 3-3v-5h4.586l-2.293 2.293a1 1 0 0 0 1.414 1.414l4-4a1 1 0 0 0 0-1.414l-4-4a1 1 0 1 0-1.414 1.414L17.586 11H13V6a3 3 0 0 0-3-3H6zm7 8H8a1 1 0 1 0 0 2h5v-2z" fill="currentColor"></path></g></svg>